# xmcd
#
# Track frame offsets: 
#        150
#        22823
#        48190
#        83466
#        108514
#        151303
#        183295
#        223275
#        241972
#        269159
#        283570
#        301954
#
# Disc length: 4464 seconds
#
# Revision: 1
# Processed by: cddbd v1.5.2PL0 Copyright (c) Steve Scherf et al.
# Submitted via: ExactAudioCopyFreeDBPlugin 1.0
#
DISCID=9c116e0c
DTITLE=Gary Clark Jr. - Live - North America 2016
DYEAR=2017
DGENRE=Blues
TTITLE0=Grinder
TTITLE1=The Healing
TTITLE2=Our Love
TTITLE3=Cold Blooded
TTITLE4=When My Train Pulls In
TTITLE5=Down to Ride
TTITLE6=You Saved Me
TTITLE7=Shake (ft Leon Bridges with Jeff Dazey)
TTITLE8=Church
TTITLE9=Honest I Do
TTITLE10=My Baby's Gone
TTITLE11=Numb
EXTD=YEAR: 2017
EXTT0=
EXTT1=
EXTT2=
EXTT3=
EXTT4=
EXTT5=
EXTT6=
EXTT7=
EXTT8=
EXTT9=
EXTT10=
EXTT11=
PLAYORDER=
